<?xml version="1.0" standalone="no"?>
<!DOCTYPE svg PUBLIC "-//W3C//DTD SVG 20010904//EN"
 "http://www.w3.org/TR/2001/REC-SVG-20010904/DTD/svg10.dtd">
<svg version="1.0" xmlns="http://www.w3.org/2000/svg"
 width="500.000000pt" height="500.000000pt" viewBox="0 0 500.000000 500.000000"
 preserveAspectRatio="xMidYMid meet">

<g transform="translate(0.000000,500.000000) scale(0.100000,-0.100000)"
fill="#000000" stroke="none">
<path d="M2853 2746 c-94 -35 -153 -83 -195 -161 -29 -52 -32 -173 -5 -223 45
-83 126 -146 226 -176 76 -22 816 -24 899 -2 107 29 200 106 240 199 18 43 15
139 -7 191 -27 62 -91 122 -169 159 l-67 32 -430 2 c-429 2 -430 2 -492 -21z
m282 -65 c39 -17 105 -81 105 -101 0 -22 -36 -8 -72 27 -31 31 -45 37 -90 40
-41 3 -60 -1 -86 -16 -89 -57 -97 -176 -17 -251 23 -21 36 -25 90 -25 60 0 66
2 102 38 37 35 73 49 73 27 0 -15 -61 -80 -89 -94 -71 -36 -147 -27 -207 26
-49 43 -67 83 -67 148 0 86 49 157 129 185 52 19 81 18 129 -4z m475 -70 c0
-5 -9 -11 -20 -14 -15 -4 -20 -14 -20 -36 0 -24 4 -31 20 -31 11 0 20 -4 20
-10 0 -5 -9 -10 -20 -10 -18 0 -20 -7 -20 -55 0 -30 -4 -55 -10 -55 -5 0 -10
25 -10 55 0 42 -3 55 -15 55 -8 0 -15 5 -15 10 0 6 7 10 15 10 10 0 15 10 15
33 0 18 5 38 12 45 14 14 48 16 48 3z m70 -56 c0 -16 6 -25 15 -25 8 0 15 -4
15 -10 0 -5 -7 -10 -15 -10 -12 0 -15 -13 -15 -55 0 -42 -3 -55 -15 -55 -12 0
-15 13 -15 55 0 42 -3 55 -15 55 -8 0 -15 5 -15 10 0 6 7 10 15 10 9 0 15 9
15 25 0 16 6 25 15 25 9 0 15 -9 15 -25z m-330 -41 c0 -8 -4 -13 -9 -9 -18 10
-41 -26 -41 -66 0 -21 -4 -39 -10 -39 -6 0 -10 28 -10 63 l0 64 35 1 c25 1 35
-3 35 -14z m140 -50 l0 -61 -49 -2 c-41 -1 -52 3 -65 21 -20 28 -20 57 0 86
12 18 23 22 65 20 l49 -2 0 -62z"/>
<path d="M3396 2494 c-20 -20 -20 -38 0 -59 36 -36 88 2 66 49 -13 29 -43 34
-66 10z"/>
<path d="M1185 2671 c-59 -35 -105 -111 -105 -171 0 -61 53 -146 111 -176 72
-37 192 -3 232 65 18 30 18 31 -1 31 -10 0 -31 -14 -47 -30 -93 -97 -255 -27
-255 110 0 137 162 207 255 110 16 -16 37 -30 47 -30 19 0 19 1 1 31 -42 72
-168 103 -238 60z"/>
<path d="M1821 2598 c-1 -21 -6 -28 -21 -28 -11 0 -20 -4 -20 -10 0 -5 9 -10
20 -10 16 0 20 -8 23 -57 l3 -58 2 58 c2 43 6 57 17 57 8 0 15 5 15 10 0 6 -6
10 -14 10 -8 0 -17 12 -19 28 l-4 27 -2 -27z"/>
<path d="M2351 2598 c-1 -21 -6 -28 -21 -28 -11 0 -20 -4 -20 -10 0 -5 9 -10
20 -10 16 0 20 -8 23 -57 l3 -58 2 58 c2 43 6 57 17 57 8 0 15 5 15 10 0 6 -6
10 -14 10 -8 0 -17 12 -19 28 l-4 27 -2 -27z"/>
<path d="M1895 2600 c3 -5 8 -10 11 -10 2 0 4 5 4 10 0 6 -5 10 -11 10 -5 0
-7 -4 -4 -10z"/>
<path d="M2265 2600 c3 -5 8 -10 11 -10 2 0 4 5 4 10 0 6 -5 10 -11 10 -5 0
-7 -4 -4 -10z"/>
<path d="M1500 2550 c-11 -11 -20 -31 -20 -45 0 -14 9 -34 20 -45 11 -11 31
-20 45 -20 14 0 34 9 45 20 11 11 20 31 20 45 0 14 -9 34 -20 45 -11 11 -31
20 -45 20 -14 0 -34 -9 -45 -20z m78 -12 c7 -7 12 -21 12 -33 0 -12 -5 -26
-12 -33 -7 -7 -21 -12 -33 -12 -12 0 -26 5 -33 12 -7 7 -12 21 -12 33 0 12 5
26 12 33 7 7 21 12 33 12 12 0 26 -5 33 -12z"/>
<path d="M1650 2507 c0 -38 4 -67 10 -67 6 0 10 20 10 44 0 47 17 70 47 64 14
-2 19 -16 24 -58 l6 -55 -1 59 c-1 67 -20 91 -55 69 -14 -9 -21 -9 -30 0 -8 8
-11 -6 -11 -56z"/>
<path d="M1903 2505 c0 -38 2 -53 4 -32 2 20 2 52 0 70 -2 17 -4 1 -4 -38z"/>
<path d="M1960 2505 c0 -74 17 -89 22 -19 3 50 22 72 52 61 12 -5 16 -19 16
-57 0 -27 5 -50 10 -50 17 0 12 97 -6 114 -18 19 -45 21 -62 4 -9 -9 -12 -9
-12 0 0 7 -4 12 -10 12 -6 0 -10 -28 -10 -65z"/>
<path d="M2110 2524 c0 -25 5 -54 10 -65 12 -21 50 -25 68 -7 9 9 12 9 12 0 0
-7 5 -12 10 -12 6 0 10 28 10 65 0 74 -17 89 -22 19 -3 -50 -22 -72 -52 -61
-12 5 -16 19 -16 57 0 27 -4 50 -10 50 -5 0 -10 -21 -10 -46z"/>
<path d="M2260 2505 c0 -37 4 -65 10 -65 6 0 10 28 10 65 0 37 -4 65 -10 65
-6 0 -10 -28 -10 -65z"/>
<path d="M2410 2565 c0 -3 11 -28 25 -55 l25 -50 -20 -40 c-22 -44 -24 -50
-11 -50 11 0 96 188 88 196 -3 3 -16 -14 -28 -37 l-22 -44 -20 43 c-18 36 -37
55 -37 37z"/>
</g>
</svg>
